<svg width="84" height="68" viewBox="0 0 84 68" fill="none" xmlns="http://www.w3.org/2000/svg">
<rect width="84" height="68" rx="10" fill="#D9D9D9"/>
<path d="M22 22.8888V27.3335H62V22.8888C62 21.71 61.4732 20.5795 60.5355 19.7459C59.5979 18.9124 58.3261 18.4441 57 18.4441H27C25.6739 18.4441 24.4021 18.9124 23.4645 19.7459C22.5268 20.5795 22 21.71 22 22.8888Z" fill="black"/>
<path d="M52 18.4444H57C58.3261 18.4444 59.5979 18.9127 60.5355 19.7462C61.4732 20.5797 62 21.7101 62 22.8889V27.3333H22V22.8889C22 21.7101 22.5268 20.5797 23.4645 19.7462C24.4021 18.9127 25.6739 18.4444 27 18.4444H32M52 18.4444V14M52 18.4444H32M32 18.4444V14M22 28.4444V49.5556C22 50.7343 22.5268 51.8648 23.4645 52.6983C24.4021 53.5317 25.6739 54 27 54H57C58.3261 54 59.5979 53.5317 60.5355 52.6983C61.4732 51.8648 62 50.7343 62 49.5556V28.4444" stroke="black" stroke-width="2" stroke-linecap="round" stroke-linejoin="round"/>
</svg>
