<svg width="44" height="44" viewBox="0 0 44 44" fill="none" xmlns="http://www.w3.org/2000/svg">
<path d="M22.0002 0.645996C17.7767 0.645996 13.6481 1.8984 10.1364 4.24482C6.62476 6.59125 3.88774 9.92631 2.27149 13.8283C0.655248 17.7302 0.232365 22.0238 1.05632 26.1662C1.88028 30.3085 3.91406 34.1134 6.9005 37.0998C9.88693 40.0863 13.6919 42.1201 17.8342 42.944C21.9765 43.768 26.2701 43.3451 30.1721 41.7288C34.074 40.1126 37.4091 37.3756 39.7555 33.8639C42.1019 30.3522 43.3543 26.2236 43.3543 22.0002C43.3488 16.3384 41.0972 10.9101 37.0938 6.90658C33.0903 2.90309 27.662 0.651512 22.0002 0.645996ZM30.0835 30.0835C29.8906 30.2803 29.6605 30.4369 29.4066 30.5442C29.1527 30.6515 28.88 30.7074 28.6043 30.7085C28.0548 30.7007 27.5307 30.476 27.146 30.0835L19.9377 22.8752V8.8335C19.9377 8.28096 20.1572 7.75106 20.5479 7.36036C20.9386 6.96966 21.4685 6.75016 22.021 6.75016C22.5735 6.75016 23.1034 6.96966 23.4941 7.36036C23.8848 7.75106 24.1043 8.28096 24.1043 8.8335V21.1668L30.0835 27.146C30.4715 27.5363 30.6893 28.0644 30.6893 28.6147C30.6893 29.1651 30.4715 29.6932 30.0835 30.0835Z" fill="black"/>
</svg>
