<svg width="66" height="64" viewBox="0 0 66 64" fill="none" xmlns="http://www.w3.org/2000/svg">
<ellipse cx="32.8373" cy="32" rx="32.2309" ry="32" fill="#FED353"/>
<path d="M33.3335 39.25C36.7567 39.25 39.5317 36.4518 39.5317 33C39.5317 29.5482 36.7567 26.75 33.3335 26.75C29.9103 26.75 27.1353 29.5482 27.1353 33C27.1353 36.4518 29.9103 39.25 33.3335 39.25Z" stroke="black" stroke-width="1.5"/>
<path d="M16.1043 30.1665C17.0816 30.7832 17.7097 31.8373 17.7097 32.9998C17.7097 34.1623 17.0816 35.2165 16.1043 35.8332C15.4411 36.2561 15.0114 36.5915 14.7077 36.9915C14.3773 37.4257 14.135 37.9214 13.9946 38.4501C13.8542 38.9787 13.8185 39.5301 13.8895 40.0728C13.9969 40.8936 14.4783 41.7353 15.4391 43.4165C16.4039 45.0978 16.8853 45.9373 17.5361 46.4436C17.9668 46.7767 18.4583 47.0211 18.9826 47.1626C19.5069 47.3042 20.0538 47.3402 20.5919 47.2686C21.0877 47.2019 21.5898 46.9978 22.284 46.6269C22.7808 46.3528 23.3386 46.2105 23.9049 46.2134C24.4712 46.2163 25.0275 46.3643 25.5215 46.6436C26.5195 47.2269 27.1124 48.2998 27.1537 49.4623C27.1827 50.254 27.257 50.7957 27.4492 51.2603C27.6569 51.7661 27.9614 52.2258 28.3453 52.6129C28.7292 53.0001 29.1851 53.3071 29.6868 53.5165C30.445 53.8332 31.4078 53.8332 33.3334 53.8332C35.259 53.8332 36.2218 53.8332 36.98 53.5165C37.4817 53.3071 37.9375 53.0001 38.3215 52.6129C38.7054 52.2258 39.0099 51.7661 39.2176 51.2603C39.4077 50.7957 39.4841 50.254 39.513 49.4623C39.5544 48.2998 40.1473 47.2248 41.1452 46.6436C41.6392 46.3643 42.1955 46.2163 42.7619 46.2134C43.3282 46.2105 43.886 46.3528 44.3828 46.6269C45.077 46.9978 45.5811 47.2019 46.077 47.2686C47.1631 47.4126 48.2614 47.1159 49.1306 46.4436C49.7815 45.9394 50.2628 45.0978 51.2256 43.4165C51.6554 42.6665 51.988 42.0853 52.236 41.5978M50.5624 35.8353C50.0787 35.5388 49.6776 35.1233 49.3968 34.6277C49.116 34.1321 48.9647 33.5727 48.9571 33.0019C48.9571 31.8373 49.5852 30.7832 50.5624 30.1644C51.2256 29.7436 51.6533 29.4082 51.9591 29.0082C52.2895 28.5739 52.5318 28.0783 52.6722 27.5496C52.8126 27.0209 52.8483 26.4695 52.7773 25.9269C52.6698 25.1061 52.1884 24.2644 51.2277 22.5832C50.2628 20.9019 49.7815 20.0623 49.1306 19.5561C48.7 19.2229 48.2085 18.9786 47.6842 18.8371C47.1599 18.6955 46.613 18.6595 46.0749 18.7311C45.579 18.7978 45.077 19.0019 44.3807 19.3728C43.8842 19.6465 43.3268 19.7886 42.7608 19.7857C42.1949 19.7828 41.639 19.635 41.1452 19.3561C40.6586 19.0642 40.2535 18.6524 39.968 18.1594C39.6825 17.6663 39.5259 17.1081 39.513 16.5373C39.4841 15.7457 39.4097 15.204 39.2176 14.7394C39.0099 14.2335 38.7054 13.7739 38.3215 13.3868C37.9375 12.9996 37.4817 12.6926 36.98 12.4832C36.2218 12.1665 35.259 12.1665 33.3334 12.1665C31.4078 12.1665 30.445 12.1665 29.6868 12.4832C29.1851 12.6926 28.7292 12.9996 28.3453 13.3868C27.9614 13.7739 27.6569 14.2335 27.4492 14.7394C27.2591 15.204 27.1827 15.7457 27.1537 16.5373C27.1409 17.1081 26.9843 17.6663 26.6988 18.1594C26.4133 18.6524 26.0082 19.0642 25.5215 19.3561C25.0275 19.6353 24.4712 19.7834 23.9049 19.7863C23.3386 19.7892 22.7808 19.6469 22.284 19.3728C21.5898 19.0019 21.0857 18.7978 20.5898 18.7311C19.5037 18.5871 18.4053 18.8838 17.5361 19.5561C16.8874 20.0623 16.4039 20.9019 15.4411 22.5832C15.0114 23.3332 14.6788 23.9144 14.4308 24.4019" stroke="black" stroke-width="1.5" stroke-linecap="round"/>
</svg>
