<svg width="43" height="44" viewBox="0 0 43 44" fill="none" xmlns="http://www.w3.org/2000/svg">
<path d="M42.1101 21.6395L22.5728 0.481865C22.4322 0.329115 22.2651 0.207929 22.0811 0.125245C21.8972 0.0425603 21.7 0 21.5009 0C21.3018 0 21.1046 0.0425603 20.9206 0.125245C20.7367 0.207929 20.5696 0.329115 20.4289 0.481865L0.89172 21.6395C0.322537 22.2564 0 23.0942 0 23.9681C0 25.7826 1.3613 27.2579 3.03564 27.2579H5.09419V42.3551C5.09419 43.2649 5.77247 44 6.61201 44H18.4652V32.4856H23.7776V44H36.3898C37.2293 44 37.9076 43.2649 37.9076 42.3551V27.2579H39.9661C40.7725 27.2579 41.5456 26.9135 42.1148 26.2915C43.2959 25.0064 43.2959 22.9246 42.1101 21.6395Z" fill="black"/>
</svg>
