<svg width="32" height="29" viewBox="0 0 32 29" fill="none" xmlns="http://www.w3.org/2000/svg">
<path d="M31.9889 14.4717C31.9889 15.4912 31.1556 16.2898 30.2111 16.2898H28.4333L28.4722 25.3637C28.4722 25.5166 28.4611 25.6695 28.4444 25.8225V26.7344C28.4444 27.9861 27.45 29 26.2222 29H25.3333C25.2722 29 25.2111 29 25.15 28.9943C25.0722 29 24.9944 29 24.9167 29H23.1111H21.7778C20.55 29 19.5556 27.9861 19.5556 26.7344V25.375V21.75C19.5556 20.7475 18.7611 19.9375 17.7778 19.9375H14.2222C13.2389 19.9375 12.4444 20.7475 12.4444 21.75V25.375V26.7344C12.4444 27.9861 11.45 29 10.2222 29H8.88889H7.11667C7.03333 29 6.95 28.9943 6.86667 28.9887C6.8 28.9943 6.73333 29 6.66667 29H5.77778C4.55 29 3.55556 27.9861 3.55556 26.7344V20.3906C3.55556 20.3396 3.55556 20.283 3.56111 20.232V16.2898H1.77778C0.777778 16.2898 0 15.4969 0 14.4717C0 13.9619 0.166667 13.5088 0.555556 13.1123L14.8 0.453125C15.1889 0.0566406 15.6333 0 16.0222 0C16.4111 0 16.8556 0.113281 17.1889 0.396484L31.3778 13.1123C31.8222 13.5088 32.0444 13.9619 31.9889 14.4717Z" fill="white"/>
</svg>
