<svg width="27" height="24" viewBox="0 0 27 24" fill="none" xmlns="http://www.w3.org/2000/svg">
<path d="M26.5043 13.0043C27.1635 12.3451 27.1635 11.2746 26.5043 10.6154L19.7543 3.86543C19.0951 3.20625 18.0246 3.20625 17.3654 3.86543C16.7062 4.52461 16.7062 5.59512 17.3654 6.2543L21.2361 10.125H10.125C9.1916 10.125 8.4375 10.8791 8.4375 11.8125C8.4375 12.7459 9.1916 13.5 10.125 13.5H21.2361L17.3654 17.3707C16.7062 18.0299 16.7062 19.1004 17.3654 19.7596C18.0246 20.4188 19.0951 20.4188 19.7543 19.7596L26.5043 13.0096V13.0043ZM8.4375 3.375C9.3709 3.375 10.125 2.6209 10.125 1.6875C10.125 0.754102 9.3709 0 8.4375 0H5.0625C2.26758 0 0 2.26758 0 5.0625V18.5625C0 21.3574 2.26758 23.625 5.0625 23.625H8.4375C9.3709 23.625 10.125 22.8709 10.125 21.9375C10.125 21.0041 9.3709 20.25 8.4375 20.25H5.0625C4.1291 20.25 3.375 19.4959 3.375 18.5625V5.0625C3.375 4.1291 4.1291 3.375 5.0625 3.375H8.4375Z" fill="white"/>
</svg>
