<svg width="42" height="34" viewBox="0 0 42 34" fill="none" xmlns="http://www.w3.org/2000/svg">
<path d="M10.5 4.25C10.5 1.90586 12.3834 0 14.7 0H37.8C40.1166 0 42 1.90586 42 4.25V23.375C42 25.7191 40.1166 27.625 37.8 27.625H22.1025C21.3281 25.9316 20.1403 24.4707 18.6637 23.375H25.2V21.25C25.2 20.0746 26.1384 19.125 27.3 19.125H31.5C32.6616 19.125 33.6 20.0746 33.6 21.25V23.375H37.8V4.25H14.7V7.51055C13.4662 6.78672 12.0291 6.375 10.5 6.375V4.25ZM10.5 8.5C11.3273 8.5 12.1466 8.6649 12.9109 8.98527C13.6753 9.30564 14.3698 9.77522 14.9548 10.3672C15.5398 10.9592 16.0038 11.6619 16.3204 12.4354C16.637 13.2088 16.8 14.0378 16.8 14.875C16.8 15.7122 16.637 16.5412 16.3204 17.3146C16.0038 18.0881 15.5398 18.7908 14.9548 19.3828C14.3698 19.9748 13.6753 20.4444 12.9109 20.7647C12.1466 21.0851 11.3273 21.25 10.5 21.25C9.67267 21.25 8.85345 21.0851 8.08909 20.7647C7.32474 20.4444 6.63024 19.9748 6.04523 19.3828C5.46022 18.7908 4.99616 18.0881 4.67956 17.3146C4.36295 16.5412 4.2 15.7122 4.2 14.875C4.2 14.0378 4.36295 13.2088 4.67956 12.4354C4.99616 11.6619 5.46022 10.9592 6.04523 10.3672C6.63024 9.77522 7.32474 9.30564 8.08909 8.98527C8.85345 8.6649 9.67267 8.5 10.5 8.5ZM8.74781 23.375H12.2456C17.0822 23.375 21 27.3395 21 32.227C21 33.2031 20.2191 34 19.2478 34H1.75219C0.780937 34 0 33.2098 0 32.227C0 27.3395 3.91781 23.375 8.74781 23.375Z" fill="white"/>
</svg>
