<svg width="40" height="40" viewBox="0 0 40 40" fill="none" xmlns="http://www.w3.org/2000/svg">
<path d="M39.2285 16.7563L39.2285 16.7563C39.2152 16.6672 39.1843 16.5817 39.1375 16.5048C39.0907 16.4278 39.0291 16.361 38.9562 16.3081C38.8833 16.2552 38.8005 16.2174 38.7128 16.1969C38.6251 16.1764 38.5342 16.1736 38.4454 16.1886C38.3566 16.2036 38.2717 16.2361 38.1956 16.2844C38.1196 16.3326 38.0539 16.3954 38.0024 16.4693C37.9509 16.5432 37.9147 16.6266 37.8958 16.7147C37.8769 16.8027 37.8758 16.8937 37.8925 16.9821L37.8945 16.9928L37.8944 16.9928C38.0605 17.9928 38.1442 19.0048 38.1445 20.0185M39.2285 16.7563L19.9803 1.85533C16.4348 1.85348 12.9663 2.88982 10.003 4.83643C7.0396 6.78305 4.71116 9.55476 3.30502 12.8094C1.89889 16.0641 1.47663 19.6593 2.09036 23.1511C2.70409 26.643 4.32695 29.8788 6.75861 32.459L7.19714 32.9243L7.54301 32.3865C9.33251 29.6042 12.0073 27.5059 15.1359 26.4303L16.0918 26.1016L15.2505 25.5413C13.7268 24.5265 12.5701 23.0484 11.9515 21.3255C11.3328 19.6026 11.285 17.7263 11.8152 15.9741C12.3453 14.222 13.4252 12.6869 14.8953 11.5958C16.3653 10.5048 18.1475 9.91573 19.9782 9.91573C21.8089 9.91573 23.5911 10.5048 25.0611 11.5958C26.5312 12.6869 27.6111 14.222 28.1412 15.9741C28.6714 17.7263 28.6236 19.6026 28.005 21.3255C27.3863 23.0484 26.2296 24.5265 24.7059 25.5413L23.8646 26.1016L24.8205 26.4303C27.9491 27.5059 30.6239 29.6042 32.4134 32.3865L32.7587 32.9234L33.1972 32.4596C36.3765 29.0976 38.1469 24.6455 38.1445 20.0185M39.2285 16.7563L39.23 16.7652M39.2285 16.7563L39.23 16.7652M38.1445 20.0185L37.6445 20.0187M38.1445 20.0185L37.6445 20.0187M37.6445 20.0187C37.6467 24.3455 36.0547 28.515 33.1832 31.7357L39.5648 16.2451C39.4835 16.1114 39.3764 15.9952 39.2497 15.9033C39.1229 15.8114 38.9792 15.7457 38.8268 15.7101C38.6744 15.6744 38.5164 15.6695 38.3621 15.6956C38.2078 15.7216 38.0602 15.7782 37.928 15.862C37.7958 15.9458 37.6816 16.0551 37.5922 16.1835C37.5027 16.3119 37.4397 16.4569 37.4069 16.6099C37.3741 16.7629 37.3722 16.921 37.4012 17.0748C37.5628 18.0477 37.6442 19.0324 37.6445 20.0187ZM39.23 16.7652C39.9155 20.8415 39.2878 25.0303 37.4374 28.7267C35.5871 32.4231 32.6098 35.4359 28.9355 37.33C25.2612 39.2242 21.0799 39.9017 16.9954 39.2648C12.9109 38.6279 9.13451 36.7095 6.21142 33.7866C3.28834 30.8637 1.36983 27.0875 0.732886 23.0032C0.0959374 18.919 0.773504 14.738 2.66776 11.0639C4.56202 7.3898 7.57496 4.41271 11.2716 2.56245C14.9682 0.712191 19.1572 0.0845076 23.2339 0.770024L23.2338 0.770104M39.23 16.7652L23.2338 0.770104M23.2338 0.770104L23.2427 0.771434M23.2338 0.770104L23.2427 0.771434M23.2427 0.771434C23.3318 0.784771 23.4173 0.815729 23.4943 0.862497C23.5713 0.909263 23.6381 0.970901 23.691 1.04381C23.7438 1.11672 23.7816 1.19943 23.8022 1.2871C23.8227 1.37478 23.8255 1.46567 23.8105 1.55446C23.7955 1.64324 23.7629 1.72815 23.7147 1.80422C23.6665 1.88028 23.6036 1.94597 23.5297 1.99745C23.4558 2.04893 23.3724 2.08516 23.2844 2.10403C23.1963 2.1229 23.1054 2.12403 23.0168 2.10735L23.0169 2.10723M23.2427 0.771434L23.0169 2.10723M23.0169 2.10723L23.0062 2.10546M23.0169 2.10723L23.0062 2.10546M23.0062 2.10546C22.0062 1.93928 20.9942 1.85563 19.9804 1.85533L23.0062 2.10546ZM32.934 5.21044H33.434V4.71044V1.17778C33.434 0.998086 33.5054 0.825751 33.6325 0.698683C33.7596 0.571614 33.9319 0.500221 34.1117 0.500221C34.2914 0.500221 34.4637 0.571614 34.5908 0.698683C34.7179 0.825751 34.7893 0.998086 34.7893 1.17778V4.71044V5.21044H35.2893H38.8222C39.0019 5.21044 39.1742 5.28183 39.3013 5.4089C39.4284 5.53597 39.4998 5.70831 39.4998 5.888C39.4998 6.06769 39.4284 6.24002 39.3013 6.36709C39.1742 6.49416 39.0019 6.56555 38.8222 6.56555H35.2893H34.7893V7.06555V10.5982C34.7893 10.7779 34.7179 10.9502 34.5908 11.0773C34.4637 11.2044 34.2914 11.2758 34.1117 11.2758C33.9319 11.2758 33.7596 11.2044 33.6325 11.0773C33.5054 10.9502 33.434 10.7779 33.434 10.5982V7.06555V6.56555H32.934H29.4012C29.2214 6.56555 29.0491 6.49416 28.922 6.36709C28.7949 6.24002 28.7235 6.06769 28.7235 5.888C28.7235 5.70831 28.7949 5.53597 28.922 5.4089C29.0491 5.28183 29.2214 5.21044 29.4012 5.21044H32.934ZM31.3961 34.1452L31.7337 33.8715L31.5097 33.4991C30.3136 31.5102 28.6232 29.8646 26.6029 28.7221C24.5826 27.5797 22.3011 26.9793 19.9802 26.9793C17.6592 26.9793 15.3777 27.5797 13.3574 28.7221C11.3371 29.8646 9.64678 31.5102 8.45063 33.4991L8.22667 33.8715L8.5642 34.1452C11.7925 36.7627 15.824 38.1883 19.9802 38.182C24.1364 38.1883 28.1679 36.7627 31.3961 34.1452ZM19.9802 25.6214C21.3989 25.6214 22.7858 25.2007 23.9654 24.4126C25.145 23.6244 26.0644 22.5042 26.6073 21.1935C27.1503 19.8828 27.2923 18.4406 27.0155 17.0492C26.7388 15.6578 26.0556 14.3798 25.0524 13.3766C24.0492 12.3735 22.771 11.6904 21.3796 11.4136C19.9881 11.1368 18.5458 11.2789 17.2351 11.8218C15.9244 12.3647 14.8041 13.284 14.0159 14.4636C13.2277 15.6431 12.807 17.0299 12.807 18.4486C12.807 20.3509 13.5627 22.1754 14.908 23.5205C16.2532 24.8657 18.0777 25.6214 19.9802 25.6214Z" fill="black" stroke="black"/>
</svg>
