<svg width="133" height="92" viewBox="0 0 133 92" fill="none" xmlns="http://www.w3.org/2000/svg">
<path d="M109.41 51.5C-28.7996 72.6705 92.2774 92 71.1434 92C81.0477 -0.505684 32.877 73.8675 32.877 51.5C32.877 29.1325 50.0094 11 71.1434 11C92.2774 11 109.41 29.1325 109.41 51.5Z" fill="black" fill-opacity="0.24"/>
<path d="M15.4715 64.7271L25.2053 52.5084L27.981 53.0965L31.2596 58.1285L30.6696 60.8951L15.4715 64.7271Z" fill="black"/>
<path d="M39.9305 32.8222L41.919 32.2552L42.8953 32.0496L44.5929 31.8712L46.3978 31.9872L47.7683 32.3533L48.5449 32.6939L49.908 33.4662L51.2905 33.7843L52.673 34.1025L35.279 43.792L34.6861 42.7684L33.9336 41.4693L33.6828 41.0363L33.1811 40.1703L32.9303 39.7373L32.6952 39.2953L32.5357 39.02L32.2849 38.587L31.9701 38.0434L31.4254 37.1392L30.7642 35.9978L35.0845 34.4561L37.5075 33.6392L39.9305 32.8222Z" fill="black"/>
<path d="M54.0271 55.3677L55.383 53.811L55.9825 53.016L56.8622 51.5579L57.5195 49.8784L57.7659 48.4857L57.7843 47.6402L58.0307 46.2475L58.4003 44.1584L58.9492 43.1648L42.0865 54.9335L42.7667 55.9017L43.6299 57.1305L43.9176 57.5401L44.4931 58.3592L44.7808 58.7688L45.0834 59.168L45.2663 59.4284L45.5541 59.838L45.9152 60.3521L46.5072 61.2262L47.2657 62.3059L50.4933 59.0548L52.2601 57.2112L54.0271 55.3677Z" fill="black"/>
<path d="M34.7196 57.526C34.3849 57.7274 33.968 57.7135 33.652 57.4902L33.305 57.2451L32.2429 56.2843L30.7819 54.585C30.7496 54.5475 30.7202 54.5075 30.6938 54.4655L30.2733 53.795L29.8206 53.0726C29.7744 52.9989 29.7379 52.9192 29.7121 52.8356L29.3713 51.7315C29.3424 51.638 29.3272 51.5405 29.3261 51.4422L29.3209 50.9885C29.3201 50.9218 29.3259 50.8552 29.338 50.7896L29.4711 50.0687C29.521 49.7985 29.6766 49.5593 29.9019 49.4063L33.4142 47.0199C33.6304 46.873 33.7828 46.6465 33.8387 46.3888L34.1775 44.8267C34.2387 44.5444 34.4153 44.3009 34.6626 44.1575L42.4338 39.6529L56.9272 31.4531L60.7092 29.8333C60.7645 29.8097 60.8216 29.7911 60.88 29.7779L66.0608 28.6046L72.1873 27.7079C73.0358 27.5837 73.6172 28.5381 73.1355 29.2645L70.373 33.4303L68.4969 35.9757C68.4527 36.0357 68.4023 36.0905 68.3464 36.1392L65.4823 38.6379L62.7146 40.9561L48.7109 50.8055L41.8162 55.531C41.6073 55.6742 41.3538 55.7321 41.1067 55.6931L38.8108 55.3307C38.5837 55.2948 38.3504 55.3408 38.1511 55.4608L34.7196 57.526Z" fill="#010101"/>
<path d="M66.0701 30.6778L65.5428 30.4693C65.4732 30.4417 65.3989 30.4276 65.324 30.4275L64.5873 30.427L63.4537 30.555C63.3777 30.5635 63.303 30.5808 63.2309 30.6063L62.2367 30.9588L61.134 31.3496L60.0637 31.7963L59.1697 32.2293L57.9913 33.0201L56.7869 33.8283L55.5261 34.6745L54.2652 35.5206L46.5988 40.6654L45.4947 41.4063L43.7495 42.7388C43.7088 42.7699 43.6705 42.804 43.635 42.841L43.0379 43.4628C42.9827 43.5202 42.9346 43.584 42.8947 43.6528L42.2898 44.6936C42.2238 44.8274 42.3924 44.9531 42.5025 44.8521L43.7005 43.7531C43.7168 43.7381 43.7343 43.7244 43.7527 43.712L45.1602 42.7675L47.0738 41.4833L48.509 40.5202L50.901 38.915L52.8146 37.6308L57.4425 34.957L59.721 33.6847C59.7761 33.6539 59.8341 33.6284 59.8941 33.6085L61.4831 33.0812L63.5454 32.3842L65.4654 31.7353C65.5585 31.7038 65.6585 31.698 65.7546 31.7184C66.4103 31.8573 66.6932 30.9243 66.0701 30.6778Z" fill="white"/>
<path d="M34.6208 56.7286C34.4243 56.7639 34.2098 56.759 34.0112 56.755C33.7428 56.7496 33.4803 56.7245 33.2223 56.6487C32.9064 56.5558 32.6249 56.4054 32.3816 56.1849C32.2457 56.0618 32.1158 55.9194 32.0184 55.764C31.9139 55.5974 31.7729 55.4496 31.6575 55.2887C31.5324 55.1145 31.4195 54.9317 31.3074 54.7489C31.1364 54.47 31.0283 54.1521 30.8842 53.8584C30.6122 53.3044 30.3555 52.7426 30.1078 52.1775C30.0165 51.9692 29.9467 51.7542 29.9283 51.5265C29.9143 51.3532 29.9498 51.1899 29.9755 51.0191C30.0125 50.772 30.1153 50.5267 30.129 50.2771C30.1324 50.2156 30.1437 50.1139 30.1105 50.0575C30.0536 49.9606 29.932 50.3058 29.9172 50.3595C29.8636 50.555 29.8758 50.7316 29.8894 50.9307C29.9052 51.163 29.9279 51.4055 29.9801 51.6329C30.0356 51.8747 30.1508 52.0745 30.2481 52.2981C30.3374 52.5036 30.4157 52.7128 30.5084 52.9169C30.6581 53.2465 30.8073 53.5769 30.9606 53.905C31.0972 54.1974 31.2781 54.4643 31.4496 54.7379C31.559 54.9125 31.6675 55.0837 31.7912 55.2484C31.9602 55.4735 32.1474 55.6803 32.3258 55.8977C32.5213 56.136 32.7127 56.3843 32.9366 56.5971C33.0261 56.6823 33.122 56.7701 33.22 56.8458C33.281 56.8929 33.3282 56.948 33.3935 56.9878C33.4732 57.0364 33.5643 57.0968 33.6554 57.1136C33.7365 57.1286 33.8156 57.1469 33.8958 57.1654" stroke="black" stroke-linecap="round"/>
<path d="M30.4229 52.7903C30.5505 53.117 30.6209 53.4653 30.7283 53.7954C30.7626 53.9008 30.8592 54.0094 30.918 54.1032C31.013 54.2548 31.1081 54.4064 31.2031 54.558C31.3357 54.7694 31.48 54.9961 31.6502 55.1761" stroke="black" stroke-linecap="round"/>
<path d="M30.3857 52.6353C30.379 52.7829 30.4501 52.9532 30.505 53.0885C30.5354 53.1633 30.5507 53.2435 30.5736 53.3207C30.5959 53.3957 30.6846 53.6113 30.643 53.5449" stroke="black" stroke-linecap="round"/>
<path d="M30.374 52.4041C30.3859 52.6235 30.4356 52.8133 30.5002 53.0214C30.5228 53.0945 30.5338 53.1724 30.5608 53.2437C30.6057 53.3622 30.6428 53.4986 30.7103 53.6063" stroke="black" stroke-linecap="round"/>
<path d="M30.4658 53.0017C30.4366 53.128 30.4444 53.253 30.5136 53.3633C30.54 53.4054 30.5597 53.4428 30.5779 53.4883C30.6162 53.5843 30.7004 53.6613 30.7525 53.7444" stroke="black" stroke-linecap="round"/>
<path d="M30.4863 52.7505C30.4202 52.8327 30.302 53.0034 30.3704 53.1125C30.3981 53.1567 30.4289 53.2003 30.4541 53.246C30.4664 53.2683 30.4576 53.3 30.459 53.3239C30.4618 53.3699 30.4981 53.4113 30.5218 53.4491C30.5438 53.4842 30.5529 53.5579 30.5961 53.5439" stroke="black" stroke-linecap="round"/>
<path d="M32.6357 56.2259C32.6893 56.3113 32.7602 56.5554 32.8895 56.5591" stroke="black" stroke-linecap="round"/>
<path d="M95.66 52.9091C95.66 54.0294 95.4445 54.9789 95.0137 55.7578C94.5828 56.5367 93.9995 57.1283 93.2637 57.5327C92.5312 57.937 91.7092 58.1392 90.7978 58.1392C89.883 58.1392 89.0594 57.9354 88.3269 57.5277C87.5944 57.12 87.0127 56.5284 86.5819 55.7528C86.1543 54.974 85.9405 54.026 85.9405 52.9091C85.9405 51.7888 86.1543 50.8393 86.5819 50.0604C87.0127 49.2815 87.5944 48.6899 88.3269 48.2855C89.0594 47.8812 89.883 47.679 90.7978 47.679C91.7092 47.679 92.5312 47.8812 93.2637 48.2855C93.9995 48.6899 94.5828 49.2815 95.0137 50.0604C95.4445 50.8393 95.66 51.7888 95.66 52.9091ZM93.1444 52.9091C93.1444 52.2462 93.0499 51.6861 92.861 51.2287C92.6754 50.7713 92.4069 50.425 92.0556 50.1896C91.7076 49.9543 91.2883 49.8366 90.7978 49.8366C90.3105 49.8366 89.8913 49.9543 89.54 50.1896C89.1886 50.425 88.9185 50.7713 88.7296 51.2287C88.544 51.6861 88.4512 52.2462 88.4512 52.9091C88.4512 53.572 88.544 54.1321 88.7296 54.5895C88.9185 55.0469 89.1886 55.3932 89.54 55.6286C89.8913 55.8639 90.3105 55.9815 90.7978 55.9815C91.2883 55.9815 91.7076 55.8639 92.0556 55.6286C92.4069 55.3932 92.6754 55.0469 92.861 54.5895C93.0499 54.1321 93.1444 53.572 93.1444 52.9091ZM97.0968 58V47.8182H101.303C102.065 47.8182 102.723 47.9557 103.276 48.2308C103.833 48.5026 104.262 48.8937 104.564 49.4041C104.866 49.9112 105.017 50.5128 105.017 51.2088C105.017 51.9148 104.862 52.5147 104.554 53.0085C104.246 53.4991 103.808 53.8736 103.242 54.1321C102.675 54.3873 102.004 54.5149 101.228 54.5149H98.5684V52.576H100.771C101.142 52.576 101.452 52.5279 101.7 52.4318C101.952 52.3324 102.143 52.1832 102.272 51.9844C102.401 51.7822 102.466 51.5237 102.466 51.2088C102.466 50.8939 102.401 50.6338 102.272 50.4283C102.143 50.2195 101.952 50.0637 101.7 49.9609C101.449 49.8549 101.139 49.8018 100.771 49.8018H99.5577V58H97.0968ZM102.829 53.3466L105.365 58H102.68L100.194 53.3466H102.829ZM115.608 51.5071H113.123C113.09 51.2519 113.022 51.0215 112.919 50.8161C112.816 50.6106 112.68 50.4349 112.511 50.2891C112.342 50.1432 112.142 50.0322 111.91 49.956C111.681 49.8764 111.427 49.8366 111.149 49.8366C110.655 49.8366 110.229 49.9576 109.871 50.1996C109.517 50.4415 109.243 50.7912 109.051 51.2486C108.862 51.706 108.768 52.2595 108.768 52.9091C108.768 53.5852 108.864 54.152 109.056 54.6094C109.251 55.0634 109.525 55.4065 109.876 55.6385C110.231 55.8672 110.65 55.9815 111.134 55.9815C111.406 55.9815 111.653 55.9467 111.875 55.8771C112.1 55.8075 112.297 55.7064 112.466 55.5739C112.639 55.438 112.78 55.2739 112.889 55.0817C113.002 54.8861 113.08 54.6657 113.123 54.4205L115.608 54.4354C115.565 54.8861 115.434 55.3303 115.216 55.7678C115 56.2053 114.704 56.6046 114.326 56.9659C113.948 57.3239 113.487 57.6089 112.944 57.821C112.403 58.0331 111.784 58.1392 111.084 58.1392C110.163 58.1392 109.338 57.937 108.608 57.5327C107.883 57.125 107.309 56.5317 106.888 55.7528C106.467 54.974 106.257 54.026 106.257 52.9091C106.257 51.7888 106.471 50.8393 106.898 50.0604C107.326 49.2815 107.904 48.6899 108.633 48.2855C109.363 47.8812 110.18 47.679 111.084 47.679C111.701 47.679 112.271 47.7652 112.795 47.9375C113.318 48.1065 113.779 48.3551 114.177 48.6832C114.574 49.008 114.898 49.4074 115.146 49.8814C115.395 50.3554 115.549 50.8973 115.608 51.5071ZM118.959 58H116.314L119.75 47.8182H123.026L126.461 58H123.817L121.425 50.3835H121.346L118.959 58ZM118.606 53.9929H124.135V55.8622H118.606V53.9929Z" fill="black"/>
</svg>
