<svg width="112" height="71" viewBox="0 0 112 71" fill="none" xmlns="http://www.w3.org/2000/svg">
<path d="M22.0137 44.7495V45.895C22.0137 47.7323 21.7646 49.3813 21.2666 50.8423C20.7686 52.3032 20.0658 53.5483 19.1582 54.5776C18.2507 55.5959 17.166 56.3761 15.9043 56.9185C14.6536 57.4608 13.2646 57.7319 11.7373 57.7319C10.221 57.7319 8.83203 57.4608 7.57031 56.9185C6.31966 56.3761 5.23503 55.5959 4.31641 54.5776C3.39779 53.5483 2.68392 52.3032 2.1748 50.8423C1.67676 49.3813 1.42773 47.7323 1.42773 45.895V44.7495C1.42773 42.9012 1.67676 41.2521 2.1748 39.8022C2.67285 38.3413 3.37565 37.0962 4.2832 36.0669C5.20182 35.0376 6.28646 34.2518 7.53711 33.7095C8.79883 33.1672 10.1878 32.896 11.7041 32.896C13.2314 32.896 14.6204 33.1672 15.8711 33.7095C17.1328 34.2518 18.2174 35.0376 19.125 36.0669C20.0436 37.0962 20.752 38.3413 21.25 39.8022C21.7591 41.2521 22.0137 42.9012 22.0137 44.7495ZM16.9834 45.895V44.7163C16.9834 43.4325 16.8672 42.3035 16.6348 41.3296C16.4023 40.3556 16.0592 39.5366 15.6055 38.8726C15.1517 38.2085 14.5983 37.7104 13.9453 37.3784C13.2923 37.0353 12.5452 36.8638 11.7041 36.8638C10.863 36.8638 10.1159 37.0353 9.46289 37.3784C8.82096 37.7104 8.27311 38.2085 7.81934 38.8726C7.37663 39.5366 7.03906 40.3556 6.80664 41.3296C6.57422 42.3035 6.45801 43.4325 6.45801 44.7163V45.895C6.45801 47.1678 6.57422 48.2967 6.80664 49.2817C7.03906 50.2557 7.38216 51.0802 7.83594 51.7554C8.28971 52.4194 8.8431 52.923 9.49609 53.2661C10.1491 53.6092 10.8962 53.7808 11.7373 53.7808C12.5785 53.7808 13.3255 53.6092 13.9785 53.2661C14.6315 52.923 15.1794 52.4194 15.6221 51.7554C16.0648 51.0802 16.4023 50.2557 16.6348 49.2817C16.8672 48.2967 16.9834 47.1678 16.9834 45.895ZM30.082 43.355V57.3999H25.3008V39.437H29.7998L30.082 43.355ZM35.4941 39.3208L35.4111 43.7534C35.1787 43.7202 34.8965 43.6925 34.5645 43.6704C34.2435 43.6372 33.9502 43.6206 33.6846 43.6206C33.0094 43.6206 32.4229 43.7091 31.9248 43.8862C31.4378 44.0522 31.0283 44.3013 30.6963 44.6333C30.3753 44.9653 30.1318 45.3693 29.9658 45.8452C29.8109 46.3211 29.7223 46.8634 29.7002 47.4722L28.7373 47.1733C28.7373 46.0112 28.8535 44.9432 29.0859 43.9692C29.3184 42.9842 29.6559 42.1265 30.0986 41.396C30.5524 40.6655 31.1058 40.1011 31.7588 39.7026C32.4118 39.3042 33.1589 39.105 34 39.105C34.2656 39.105 34.5368 39.1271 34.8135 39.1714C35.0902 39.2046 35.3171 39.2544 35.4941 39.3208ZM44.8408 53.9966C45.4274 53.9966 45.9476 53.8859 46.4014 53.6646C46.8551 53.4321 47.2093 53.1112 47.4639 52.7017C47.7295 52.2811 47.8678 51.7886 47.8789 51.2241H52.3779C52.3669 52.4858 52.0293 53.6092 51.3652 54.5942C50.7012 55.5682 49.8102 56.3374 48.6924 56.9019C47.5745 57.4552 46.3239 57.7319 44.9404 57.7319C43.5459 57.7319 42.3285 57.4995 41.2881 57.0347C40.2588 56.5698 39.401 55.9279 38.7148 55.1089C38.0286 54.2788 37.514 53.3159 37.1709 52.2202C36.8278 51.1134 36.6562 49.9292 36.6562 48.6675V48.186C36.6562 46.9132 36.8278 45.729 37.1709 44.6333C37.514 43.5265 38.0286 42.5636 38.7148 41.7446C39.401 40.9146 40.2588 40.2671 41.2881 39.8022C42.3174 39.3374 43.5238 39.105 44.9072 39.105C46.3792 39.105 47.6686 39.3872 48.7754 39.9517C49.8932 40.5161 50.7676 41.3241 51.3984 42.3755C52.0404 43.4159 52.3669 44.6499 52.3779 46.0776H47.8789C47.8678 45.48 47.7406 44.9377 47.4971 44.4507C47.2646 43.9637 46.9215 43.5763 46.4678 43.2886C46.0251 42.9897 45.4772 42.8403 44.8242 42.8403C44.127 42.8403 43.557 42.9897 43.1143 43.2886C42.6715 43.5763 42.3285 43.9748 42.085 44.4839C41.8415 44.9819 41.6699 45.5519 41.5703 46.1938C41.4818 46.8247 41.4375 47.4888 41.4375 48.186V48.6675C41.4375 49.3647 41.4818 50.0343 41.5703 50.6763C41.6589 51.3182 41.8249 51.8882 42.0684 52.3862C42.3229 52.8843 42.6715 53.2772 43.1143 53.5649C43.557 53.8527 44.1325 53.9966 44.8408 53.9966ZM64.8457 53.3491V45.3472C64.8457 44.7716 64.7516 44.2791 64.5635 43.8696C64.3753 43.4491 64.082 43.1226 63.6836 42.8901C63.2962 42.6577 62.7926 42.5415 62.1729 42.5415C61.6416 42.5415 61.1823 42.6356 60.7949 42.8237C60.4076 43.0008 60.1087 43.2609 59.8984 43.604C59.6882 43.936 59.583 44.3289 59.583 44.7827H54.8018C54.8018 44.019 54.9788 43.2941 55.333 42.6079C55.6872 41.9217 56.2018 41.3185 56.877 40.7983C57.5521 40.2671 58.3545 39.8521 59.2842 39.5532C60.2249 39.2544 61.2764 39.105 62.4385 39.105C63.833 39.105 65.0726 39.3374 66.1572 39.8022C67.2419 40.2671 68.0941 40.9644 68.7139 41.894C69.3447 42.8237 69.6602 43.9858 69.6602 45.3804V53.0669C69.6602 54.0519 69.721 54.8599 69.8428 55.4907C69.9645 56.1105 70.1416 56.6528 70.374 57.1177V57.3999H65.543C65.3105 56.9129 65.1335 56.3042 65.0117 55.5737C64.901 54.8322 64.8457 54.0907 64.8457 53.3491ZM65.4766 46.4595L65.5098 49.1655H62.8369C62.2061 49.1655 61.6582 49.2375 61.1934 49.3813C60.7285 49.5252 60.3467 49.73 60.0479 49.9956C59.749 50.2502 59.5277 50.549 59.3838 50.8921C59.251 51.2352 59.1846 51.6115 59.1846 52.021C59.1846 52.4305 59.2786 52.8013 59.4668 53.1333C59.6549 53.4543 59.9261 53.7088 60.2803 53.897C60.6344 54.0741 61.0495 54.1626 61.5254 54.1626C62.2448 54.1626 62.8701 54.0187 63.4014 53.731C63.9326 53.4432 64.3421 53.089 64.6299 52.6685C64.9287 52.2479 65.0837 51.8494 65.0947 51.4731L66.3564 53.4985C66.1794 53.9523 65.9359 54.4227 65.626 54.9097C65.3271 55.3966 64.9453 55.856 64.4805 56.2876C64.0156 56.7082 63.4567 57.0568 62.8037 57.3335C62.1507 57.5991 61.376 57.7319 60.4795 57.7319C59.3395 57.7319 58.3047 57.505 57.375 57.0513C56.4564 56.5864 55.7259 55.95 55.1836 55.1421C54.6523 54.3231 54.3867 53.3934 54.3867 52.353C54.3867 51.4123 54.5638 50.5767 54.918 49.8462C55.2721 49.1157 55.7923 48.5015 56.4785 48.0034C57.1758 47.4943 58.0446 47.1125 59.085 46.8579C60.1253 46.5923 61.3317 46.4595 62.7041 46.4595H65.4766ZM73.5781 55.0923C73.5781 54.384 73.8216 53.7918 74.3086 53.3159C74.8066 52.84 75.4652 52.6021 76.2842 52.6021C77.1032 52.6021 77.7562 52.84 78.2432 53.3159C78.7412 53.7918 78.9902 54.384 78.9902 55.0923C78.9902 55.8006 78.7412 56.3927 78.2432 56.8687C77.7562 57.3446 77.1032 57.5825 76.2842 57.5825C75.4652 57.5825 74.8066 57.3446 74.3086 56.8687C73.8216 56.3927 73.5781 55.8006 73.5781 55.0923Z" fill="white"/>
<path d="M112 71C110.556 70.9962 109.129 70.6825 107.817 70.0799C106.465 69.4458 104.992 69.1142 103.5 69.1081C102.007 69.1105 100.533 69.4424 99.1835 70.0799C97.8708 70.6808 96.445 70.9945 95.0015 71C93.552 70.9966 92.12 70.6829 90.8017 70.0799C89.4517 69.4427 87.9779 69.1109 86.4852 69.1081C84.9974 69.1124 83.5288 69.4442 82.1835 70.0799C80.8657 70.683 79.4342 70.9967 77.9852 71C76.4951 71 75.073 70.6598 73.8032 70.0799C72.4543 69.4426 70.9814 69.1107 69.4897 69.1081C67.9968 69.114 66.5232 69.4457 65.1717 70.0799C63.8625 70.6821 62.4394 70.9958 60.9985 71C59.5084 71 58.0863 70.6598 56.8165 70.0799C55.4666 69.4424 53.9927 69.1105 52.5 69.1081C51.0077 69.1142 49.5346 69.4458 48.1835 70.0799C46.8709 70.6827 45.4442 70.9964 44 71V64.675C45.4901 64.675 46.9122 64.3333 48.182 63.7505C49.5377 63.1324 51.0087 62.8078 52.4985 62.7979C54.0389 62.7979 55.5127 63.1559 56.815 63.7505C58.1263 64.3562 59.5528 64.6716 60.997 64.675C62.4388 64.6706 63.8627 64.3553 65.1717 63.7505C66.5278 63.132 67.9993 62.8074 69.4897 62.7979C71.03 62.7979 72.4979 63.1559 73.8032 63.7505C75.1145 64.3562 76.541 64.6716 77.9852 64.675C79.4347 64.6714 80.8664 64.3561 82.1835 63.7505C83.5334 63.1306 84.9999 62.8058 86.4852 62.7979C88.0241 62.7979 89.4964 63.1559 90.8017 63.7505C92.1192 64.3564 93.5515 64.6717 95.0015 64.675C96.4723 64.675 97.9137 64.3333 99.1835 63.7505C100.538 63.1288 102.01 62.804 103.5 62.7979C105.024 62.7979 106.496 63.1559 107.817 63.7505C109.128 64.3559 110.555 64.6712 112 64.675V71ZM84.5369 57.9388C85.1774 57.8028 85.8304 57.7344 86.4852 57.7347C88.0241 57.7347 89.4964 58.0911 90.8017 58.6873C92.1193 59.2927 93.5516 59.6074 95.0015 59.6103C96.4723 59.6103 97.9137 59.2701 99.1835 58.6873C100.081 58.282 101.046 57.9551 102.079 57.819C101.519 40.8483 83.9441 25.7073 83.1163 24.9234C82.253 24.1379 81.4562 22.4176 82.0164 20.3867L86.2132 6.40397C86.9597 4.23696 86.5872 1.33924 85.5554 0.469479C84.9626 -0.00829777 83.709 -0.349989 82.8605 0.623315L71.5045 13.5987C69.0151 16.2598 71.0995 19.1072 71.0492 19.0909C67.1865 17.6916 62.6512 18.6294 59.9002 19.7714L50.5191 24.5654C49.5878 24.9574 49.1828 26.1496 49.6736 26.9513C51.2317 29.46 56.3952 29.4763 67.154 28.2989C84.5369 26.4218 84.5546 54.4775 84.5369 57.9388Z" fill="#575757"/>
</svg>
