<svg width="40" height="45" viewBox="0 0 40 45" fill="none" xmlns="http://www.w3.org/2000/svg">
<path fill-rule="evenodd" clip-rule="evenodd" d="M4.06 0C1.81667 0 0 1.75229 0 3.91612V18.6096C0 20.7766 1.81667 22.5322 4.06 22.5322H35.94C38.1833 22.5322 40 20.7766 40 18.6096V3.91612C40 1.75229 38.1833 0 35.94 0H4.06ZM13.07 30.3547C13.07 31.5839 12.5638 32.7628 11.6626 33.632C10.7615 34.5012 9.53937 34.9895 8.265 34.9895C6.99063 34.9895 5.76846 34.5012 4.86735 33.632C3.96624 32.7628 3.46 31.5839 3.46 30.3547C3.46 29.1255 3.96624 27.9467 4.86735 27.0775C5.76846 26.2083 6.99063 25.72 8.265 25.72C9.53937 25.72 10.7615 26.2083 11.6626 27.0775C12.5638 27.9467 13.07 29.1255 13.07 30.3547ZM31.75 34.9911C33.0244 34.9911 34.2465 34.5028 35.1476 33.6336C36.0488 32.7644 36.555 31.5856 36.555 30.3563C36.555 29.1271 36.0488 27.9483 35.1476 27.0791C34.2465 26.2099 33.0244 25.7216 31.75 25.7216C30.4756 25.7216 29.2535 26.2099 28.3524 27.0791C27.4512 27.9483 26.945 29.1271 26.945 30.3563C26.945 31.5856 27.4512 32.7644 28.3524 33.6336C29.2535 34.5028 30.4756 34.9911 31.75 34.9911ZM8.26333 37.4925C6.42321 37.4928 4.64265 38.1216 3.23742 39.2676C1.83219 40.4135 0.893091 42.0024 0.586667 43.7525C0.47 44.4341 1.06333 45 1.78 45H14.75C15.4667 45 16.06 44.4341 15.9433 43.7525C15.6368 42.0018 14.6972 40.4125 13.2913 39.2665C11.8854 38.1205 10.104 37.492 8.26333 37.4925ZM24.0733 43.7525C24.3793 42.0017 25.3184 40.4121 26.7241 39.2657C28.1297 38.1193 29.9109 37.4903 31.7517 37.4903C33.5924 37.4903 35.3736 38.1193 36.7793 39.2657C38.1849 40.4121 39.124 42.0017 39.43 43.7525C39.5467 44.4341 38.9533 45 38.2367 45H25.2667C24.5533 45 23.9567 44.4341 24.0733 43.7525ZM23.7433 6.81945C23.7433 7.77706 23.3489 8.69545 22.6469 9.37258C21.9449 10.0497 20.9928 10.4301 20 10.4301C19.0072 10.4301 18.0551 10.0497 17.3531 9.37258C16.6511 8.69545 16.2567 7.77706 16.2567 6.81945C16.2567 5.86184 16.6511 4.94345 17.3531 4.26632C18.0551 3.58918 19.0072 3.20877 20 3.20877C20.9928 3.20877 21.9449 3.58918 22.6469 4.26632C23.3489 4.94345 23.7433 5.86184 23.7433 6.81945ZM13.4167 18.1884C13.6796 16.6877 14.485 15.3253 15.6901 14.3429C16.8952 13.3604 18.4221 12.8214 20 12.8214C21.5779 12.8214 23.1048 13.3604 24.3099 14.3429C25.515 15.3253 26.3204 16.6877 26.5833 18.1884C26.6833 18.7736 26.1767 19.2559 25.5633 19.2559H14.4333C13.82 19.2559 13.3167 18.7736 13.4167 18.1884Z" fill="white"/>
</svg>
