<svg width="45" height="45" viewBox="0 0 45 45" fill="none" xmlns="http://www.w3.org/2000/svg">
<path fill-rule="evenodd" clip-rule="evenodd" d="M4.5675 0C2.04375 0 0 1.75229 0 3.91612V18.6096C0 20.7766 2.04375 22.5322 4.5675 22.5322H40.4325C42.9562 22.5322 45 20.7766 45 18.6096V3.91612C45 1.75229 42.9562 0 40.4325 0H4.5675ZM14.7037 30.3547C14.7037 31.5839 14.1342 32.7628 13.1205 33.632C12.1067 34.5012 10.7318 34.9895 9.29813 34.9895C7.86446 34.9895 6.48952 34.5012 5.47577 33.632C4.46202 32.7628 3.8925 31.5839 3.8925 30.3547C3.8925 29.1255 4.46202 27.9467 5.47577 27.0775C6.48952 26.2083 7.86446 25.72 9.29813 25.72C10.7318 25.72 12.1067 26.2083 13.1205 27.0775C14.1342 27.9467 14.7037 29.1255 14.7037 30.3547ZM35.7188 34.9911C37.1524 34.9911 38.5274 34.5028 39.5411 33.6336C40.5549 32.7644 41.1244 31.5856 41.1244 30.3563C41.1244 29.1271 40.5549 27.9483 39.5411 27.0791C38.5274 26.2099 37.1524 25.7216 35.7188 25.7216C34.2851 25.7216 32.9101 26.2099 31.8964 27.0791C30.8826 27.9483 30.3131 29.1271 30.3131 30.3563C30.3131 31.5856 30.8826 32.7644 31.8964 33.6336C32.9101 34.5028 34.2851 34.9911 35.7188 34.9911ZM9.29625 37.4925C7.22611 37.4928 5.22299 38.1216 3.6421 39.2676C2.06121 40.4135 1.00473 42.0024 0.66 43.7525C0.52875 44.4341 1.19625 45 2.0025 45H16.5938C17.4 45 18.0675 44.4341 17.9363 43.7525C17.5914 42.0018 16.5344 40.4125 14.9527 39.2665C13.3711 38.1205 11.367 37.492 9.29625 37.4925ZM27.0825 43.7525C27.4267 42.0017 28.4833 40.4121 30.0646 39.2657C31.6459 38.1193 33.6498 37.4903 35.7206 37.4903C37.7915 37.4903 39.7953 38.1193 41.3767 39.2657C42.958 40.4121 44.0145 42.0017 44.3588 43.7525C44.49 44.4341 43.8225 45 43.0163 45H28.425C27.6225 45 26.9513 44.4341 27.0825 43.7525ZM26.7113 6.81945C26.7113 7.77706 26.2676 8.69545 25.4778 9.37258C24.688 10.0497 23.6169 10.4301 22.5 10.4301C21.3831 10.4301 20.312 10.0497 19.5222 9.37258C18.7324 8.69545 18.2887 7.77706 18.2887 6.81945C18.2887 5.86184 18.7324 4.94345 19.5222 4.26632C20.312 3.58918 21.3831 3.20877 22.5 3.20877C23.6169 3.20877 24.688 3.58918 25.4778 4.26632C26.2676 4.94345 26.7113 5.86184 26.7113 6.81945ZM15.0938 18.1884C15.3895 16.6877 16.2956 15.3253 17.6514 14.3429C19.0071 13.3604 20.7249 12.8214 22.5 12.8214C24.2751 12.8214 25.9929 13.3604 27.3486 14.3429C28.7044 15.3253 29.6105 16.6877 29.9063 18.1884C30.0188 18.7736 29.4487 19.2559 28.7587 19.2559H16.2375C15.5475 19.2559 14.9812 18.7736 15.0938 18.1884Z" fill="black"/>
</svg>
