<svg width="40" height="40" viewBox="0 0 40 40" fill="none" xmlns="http://www.w3.org/2000/svg">
<path d="M28.2235 5.888C28.2235 5.57569 28.3476 5.27617 28.5685 5.05534C28.7893 4.83451 29.0888 4.71044 29.4012 4.71044H32.934V1.17778C32.934 0.86547 33.0581 0.565954 33.279 0.345119C33.4998 0.124285 33.7993 0.000221486 34.1117 0.000221486C34.424 0.000221486 34.7235 0.124285 34.9444 0.345119C35.1652 0.565954 35.2893 0.86547 35.2893 1.17778V4.71044H38.8222C39.1345 4.71044 39.434 4.83451 39.6549 5.05534C39.8757 5.27617 39.9998 5.57569 39.9998 5.888C39.9998 6.2003 39.8757 6.49982 39.6549 6.72065C39.434 6.94149 39.1345 7.06555 38.8222 7.06555H35.2893V10.5982C35.2893 10.9105 35.1652 11.21 34.9444 11.4309C34.7235 11.6517 34.424 11.7758 34.1117 11.7758C33.7993 11.7758 33.4998 11.6517 33.279 11.4309C33.0581 11.21 32.934 10.9105 32.934 10.5982V7.06555H29.4012C29.0888 7.06555 28.7893 6.94149 28.5685 6.72065C28.3476 6.49982 28.2235 6.2003 28.2235 5.888ZM39.723 16.6823C40.4262 20.8632 39.7824 25.1593 37.8845 28.9505C35.9867 32.7417 32.9331 35.8317 29.1646 37.7744C25.3961 39.7172 21.1076 40.4121 16.9184 39.7588C12.7292 39.1056 8.85591 37.138 5.85788 34.1401C2.85984 31.1423 0.89214 27.2693 0.238858 23.0803C-0.414425 18.8913 0.280518 14.6031 2.22335 10.8348C4.16619 7.06646 7.25638 4.01303 11.0478 2.11533C14.8392 0.21763 19.1356 -0.426146 23.3168 0.276947C23.4716 0.300124 23.6202 0.353923 23.7539 0.435198C23.8877 0.516474 24.0039 0.623596 24.0958 0.750301C24.1876 0.877007 24.2533 1.02075 24.289 1.17314C24.3247 1.32553 24.3296 1.4835 24.3035 1.63781C24.2774 1.79213 24.2208 1.93969 24.1371 2.07189C24.0533 2.20408 23.944 2.31824 23.8156 2.40771C23.6871 2.49717 23.5422 2.56014 23.3891 2.59293C23.2361 2.62573 23.078 2.62768 22.9242 2.59869C21.9512 2.43701 20.9665 2.35561 19.9802 2.35533C16.5322 2.35351 13.1592 3.36131 10.2775 5.25432C7.39574 7.14734 5.13142 9.84271 3.76402 13.0077C2.39662 16.1728 1.98598 19.6689 2.58281 23.0646C3.17964 26.4603 4.75779 29.6069 7.12248 32.1161C8.97279 29.2392 11.7385 27.0696 14.9733 25.9575C13.3603 24.8832 12.1358 23.3184 11.4809 21.4944C10.826 19.6705 10.7754 17.6842 11.3366 15.8293C11.8978 13.9744 13.0411 12.3493 14.5973 11.1943C16.1535 10.0393 18.0402 9.41573 19.9782 9.41573C21.9163 9.41573 23.8029 10.0393 25.3591 11.1943C26.9154 12.3493 28.0586 13.9744 28.6198 15.8293C29.181 17.6842 29.1305 19.6705 28.4755 21.4944C27.8206 23.3184 26.5961 24.8832 24.9831 25.9575C28.2179 27.0696 30.9836 29.2392 32.8339 32.1161C35.9253 28.847 37.6468 24.5178 37.6445 20.0187C37.6442 19.0324 37.5628 18.0477 37.4012 17.0748C37.3722 16.921 37.3741 16.7629 37.4069 16.6099C37.4397 16.4569 37.5027 16.3119 37.5922 16.1835C37.6816 16.0551 37.7958 15.9458 37.928 15.862C38.0602 15.7782 38.2078 15.7216 38.3621 15.6956C38.5164 15.6695 38.6744 15.6744 38.8268 15.7101C38.9792 15.7457 39.1229 15.8114 39.2497 15.9033C39.3764 15.9952 39.4835 16.1114 39.5648 16.2451C39.6461 16.3789 39.6999 16.5275 39.723 16.6823ZM19.9802 25.1214C21.3 25.1214 22.5902 24.73 23.6876 23.9968C24.785 23.2636 25.6403 22.2215 26.1454 21.0022C26.6505 19.7829 26.7826 18.4412 26.5252 17.1468C26.2677 15.8524 25.6321 14.6634 24.6988 13.7302C23.7656 12.797 22.5765 12.1615 21.282 11.904C19.9876 11.6465 18.6458 11.7787 17.4264 12.2837C16.2071 12.7888 15.1649 13.644 14.4316 14.7414C13.6983 15.8387 13.307 17.1288 13.307 18.4486C13.307 20.2183 14.01 21.9156 15.2615 23.167C16.513 24.4184 18.2103 25.1214 19.9802 25.1214ZM19.9802 37.682C24.0217 37.6883 27.942 36.3021 31.0812 33.7568C29.9295 31.8418 28.302 30.2574 26.3568 29.1574C24.4116 28.0574 22.2149 27.4793 19.9802 27.4793C17.7455 27.4793 15.5488 28.0574 13.6035 29.1574C11.6583 30.2574 10.0308 31.8418 8.87911 33.7568C12.0183 36.3021 15.9386 37.6883 19.9802 37.682Z" fill="#FFFBFB"/>
</svg>
